<svg xmlns="http://www.w3.org/2000/svg" xmlns:xlink="http://www.w3.org/1999/xlink" width="112" height="112" viewBox="0 0 112 112">
    <defs>
        <path id="prefix__a" d="M4.288 0.146L4.288 0.724 2.763 0.724 2.763 4.865 2.099 4.865 2.099 0.724 0.574 0.724 0.574 0.146z"/>
        <path id="prefix__c" d="M1.958 0.145L3.381 3.767 4.797 0.145 5.834 0.145 5.834 4.866 5.166 4.866 5.166 0.922 3.576 4.866 3.153 4.866 1.579 0.922 1.567 4.866 0.919 4.866 0.919 0.145z"/>
        <path id="prefix__e" d="M56 0c30.928 0 56 25.072 56 56s-25.072 56-56 56S0 86.928 0 56 25.072 0 56 0z"/>
        <path id="prefix__g" d="M9.695 1.048c.355-.26.643.054.395.364-2.65 3.302-4.064 6.638-4.064 11.58 0 6.074 4.898 11.01 4.898 16.9 0 6.944-6.58 8.932-6.58 14.628 0 5.699 7.057 10.256 7.057 16.307 0 5.61-6.676 11.836-5.53 18.313-1.48-.383-2.932-.836-4.362-1.334-.727-6.086 5.8-12.362 5.8-17.328C7.31 55.046.476 50.38.476 44.52c0-5.857 6.95-8.583 6.95-14.595 0-6.011-4.267-9.34-4.267-15.982 0-5.175 2.561-9.832 6.3-12.716l.237-.18z"/>
        <path id="prefix__i" d="M12.58.275C9.362 4.126 7.5 7.622 7.5 12.922c0 5.953 3.513 9.259 3.513 15.092 0 5.829-7.077 9.074-7.077 14.506 0 5.435 6.586 10.02 6.586 15.6 0 5.076-5.8 10.15-5.893 16.173-1.03-.448-2.04-.93-3.035-1.435.193-5.202 5.565-10.885 5.565-15.156C7.16 52.936.904 48.15.904 42.52c0-5.63 7.214-9.529 7.214-14.47 0-4.942-3.071-7.784-3.071-14.117 0-4.638 2.21-9.335 5.617-12.334.605-.53 1.2-.954 1.915-1.324z"/>
        <path id="prefix__k" d="M7.346.455c.686 1.16 1.505 2.614 1.505 4.357 0 4.763-5.078 8.54-5.49 13.272-.804-.478-1.597-.975-2.376-1.492.703-5.669 8.451-9.556 6.36-16.137z"/>
        <path id="prefix__m" d="M1.533.455c-2.09 6.58 5.66 10.468 6.364 16.137-.78.517-1.573 1.014-2.38 1.494C5.107 13.352.031 9.575.031 4.812c0-1.743.82-3.197 1.502-4.357z"/>
        <path id="prefix__o" d="M19.017 2.152c.686 5.388 5.93 7.108 5.93 12.368 0 5.581-7.305 10.671-7.305 16.385 0 5.269 6.536 11.058 5.298 19.111-3.246.585-6.584.907-9.998.907-3.417 0-6.755-.322-10.003-.907-1.238-8.054 5.298-13.842 5.298-19.11C8.237 25.19.935 20.1.935 14.52c0-5.26 5.244-6.98 5.93-12.368.097-.733.69-1.278 1.5-1.142 1.068.194 2.434.894 4.577.894 2.142 0 3.507-.7 4.573-.894.813-.136 1.405.41 1.502 1.142z"/>
        <path id="prefix__q" d="M4.055.723c.46.621.939 1.227 1.433 1.818-1.057.716-1.99 1.997-2.6 3.047-.646-.52-1.278-1.054-1.9-1.601C1.703 2.882 2.81 1.476 4.054.723z"/>
        <path id="prefix__s" d="M1.792 1.412c-.248-.31.04-.624.392-.364.082.058.158.118.236.179 3.743 2.884 6.304 7.541 6.304 12.716 0 6.641-4.267 9.971-4.267 15.982 0 6.012 6.95 8.738 6.95 14.595 0 5.86-6.837 10.526-6.837 15.958 0 4.966 6.531 11.243 5.8 17.329-1.43.497-2.88.95-4.359 1.333C7.157 72.663.481 66.437.481 60.827c0-6.051 7.054-10.608 7.054-16.307 0-5.696-6.58-7.684-6.58-14.628 0-5.89 4.898-10.826 4.898-16.9 0-4.942-1.414-8.278-4.06-11.58z"/>
        <path id="prefix__u" d="M.302.275c.717.37 1.308.794 1.913 1.324 3.41 3 5.614 7.696 5.614 12.334 0 6.333-3.065 9.175-3.065 14.116 0 4.942 7.214 8.842 7.214 14.471 0 5.63-6.255 10.416-6.255 15.182 0 4.271 5.372 9.954 5.565 15.155-.997.507-2.008.988-3.037 1.436-.093-6.023-5.897-11.096-5.897-16.172 0-5.581 6.592-10.165 6.592-15.601 0-5.432-7.078-8.677-7.078-14.506 0-5.833 3.515-9.139 3.515-15.092 0-5.3-1.863-8.796-5.08-12.647z"/>
        <path id="prefix__w" d="M15.086.791l.435.01c-.388 1.373-.704 2.776-.944 4.203C9.227 5 7.07 9.994 1.123 9.258c-.278-1.364-.49-2.75-.666-4.15C6.772 6.145 9.041.52 15.521.803l-.435-.01z"/>
        <path id="prefix__y" d="M5.562.066c.383.749.79 1.482 1.217 2.203-1.844.499-3.104 2.355-4.084 3.575C2.07 5.199 1.46 4.537.865 3.86 1.956 2.65 3.42.629 5.563.066z"/>
        <path id="prefix__A" d="M.04 5.488C7.846 6.552 10.701-.447 19.096 1.024c-.825 1.488-1.56 3.036-2.19 4.636-6.702-.74-9.46 5.3-16.82 4.478C.033 9.124 0 8.105 0 7.078c0-.533.025-1.06.04-1.59z"/>
        <path id="prefix__C" d="M11.63.694h.422c-.042.775-.067 1.557-.067 2.345 0 .44.007.873.022 1.306-4.643-.055-6.152 4.231-10.575 4.03C.996 7.193.612 5.988.256 4.772 4.953 5.226 6.613.567 12.052.694h-.421z"/>
        <path id="prefix__E" d="M19.842 5.488c.01.353.024.705.033 1.058l.006.444.001.164c-.001.66-.015 1.315-.04 1.968l-.047 1.016C12.434 10.96 9.677 4.92 2.977 5.66 2.346 4.06 1.608 2.512.783 1.024c8.395-1.471 11.25 5.528 19.059 4.464z"/>
        <path id="prefix__G" d="M27.633.617c-2.844 3.509-5.026 7.672-5.026 12.492 0 5.35 2.494 8.175 2.494 13.113 0 4.936-7.235 9.211-7.235 14.298 0 2.006.64 3.96 2.756 7.802-3.248 3.239-7.479 5.005-10.21 5.005-.883 0-1.36-.267-1.678-.963-.273-.6-.532-1.207-.778-1.818-2.938.115-4.283 2.78-5.911 3.849C1.44 53.584.862 52.752.3 51.909c1.78-.954 3.328-3.827 6.706-4.005-.346-1.067-.65-2.148-.91-3.251 2.998 0 6.43-1.167 9.304-3.782-.931-5.299 7.303-10.692 7.303-14.573 0-4.211-2.134-6.544-2.134-12.225 0-4.218 2.049-8.79 5.145-11.916.6-.607 1.213-1.1 1.918-1.54z"/>
        <path id="prefix__I" d="M9.025.843l.364.017c.146 1.042.33 2.075.553 3.093C5.738 3.659 4.833 7.52 1.829 7.83 1.282 6.833.77 5.813.285 4.78 3.457 4.596 4.558.534 9.389.86L9.025.843z"/>
        <path id="prefix__K" d="M2.674.95c2.121 0 4.243 1.29 4.14 2.476-2.383-.88-4.68-.925-5.767.163-.516-.463-.68-.885-.68-1.37 0-.75.765-1.269 2.307-1.269z"/>
        <path id="prefix__M" d="M4.208.95c1.542 0 2.303.518 2.303 1.27 0 .484-.163.905-.676 1.369-.96-1.073-2.954-1.042-5.211-.27-.137-.279-.137-.69-.04-.966C1.504 1.332 2.964.95 4.208.95z"/>
        <path id="prefix__O" d="M11.941.664c5.192 0 9.542 2.932 10.683 6.72.085.29-.033.478-.37.327-.923-.419-1.997-.621-3.15-.621-2.12 0-3.986.778-5.09 2.127-.676 2.23-.634 4.73.176 6.68 1.223-.12 1.12-2.284 2.145-2.284.854 0 1.25.6 2.695.6 1.336 0 1.87-.376 2.45-.794 1.169.152 1.435 1.26 1.435 2.557 0 5.775-5.317 13.725-10.974 13.725S.967 21.751.967 15.976c0-1.296.206-2.445 1.323-2.445.947 0 1.117.682 2.561.682 1.445 0 2.104-.6 2.957-.6.85 0 1.165.676 2.036.87.552-1.328.513-3.657.022-5.266C8.764 7.868 6.897 7.09 4.779 7.09c-1.157 0-2.219.202-3.154.62-.336.152-.455-.036-.367-.327C2.4 3.596 6.748.663 11.941.663zm4.06 21.366s-1.535.36-4.06.36c-2.525 0-4.06-.36-4.06-.36s-.295.106-.374.367c1.175.902 1.985 2.95 4.434 2.95 2.446 0 3.26-2.048 4.43-2.95-.078-.261-.37-.367-.37-.367zm-2.766-3.705c-.462-.004-.614.254-1.294.254s-.83-.258-1.292-.254c-.444.002-1.303.35-1.488.675.013.163.073.309.189.44.995.151 1.441.702 2.591.702 1.148 0 1.597-.551 2.588-.703.119-.13.18-.276.192-.44-.185-.323-1.044-.672-1.486-.674z"/>
        <path id="prefix__Q" d="M25.941.561l2.956 6.878 7.411.521-5.536 4.882 2.495 6.523c3.184-3.254 7.551-5.163 12.765-5.714-1.963 2.936-3.517 5.962-4.74 9.426 2.877-2.343 6.44-3.749 10.54-4.04-2.46 3.157-4.64 6.524-6.255 10.139-.182.409-.57.542-.996.333-5.617-2.785-11.945-4.354-18.64-4.354s-13.026 1.57-18.64 4.354c-.426.209-.817.076-1-.333C4.688 25.56 2.506 22.194.048 19.038c4.103.29 7.663 1.696 10.543 4.039-1.226-3.464-2.78-6.49-4.743-9.426 5.049.533 9.299 2.338 12.456 5.403l.312.31 2.492-6.522-5.533-4.882 7.411-.52L25.941.56zm0 16.028s-5.605 4.26-5.8 4.403c-.215.16-.106.433.173.384.492-.087 2.856-.484 5.627-.484 2.77 0 5.135.397 5.626.484.28.049.389-.224.17-.384-.19-.143-5.796-4.403-5.796-4.403z"/>
        <path id="prefix__S" d="M20.226.567c.419-.294.862-.015.82.476-.644 8.356 4.249 15.615 10.267 21.993-6.204 1.86-11.485-6.11-19.53-3.327C8.892 15.413 5.226 11.686.986 8.717c4.118-1.681 9.102-1.294 13.363 1.44.662-3.957 2.81-7.47 5.876-9.59z"/>
        <path id="prefix__U" d="M10.83 1.043c-.036-.491.404-.77.826-.476 3.065 2.12 5.214 5.633 5.873 9.59 4.261-2.734 9.247-3.121 13.363-1.44-4.24 2.97-7.906 6.696-10.799 10.992C12.051 16.925 6.77 24.897.566 23.036 6.585 16.658 11.48 9.4 10.83 1.043z"/>
        <path id="prefix__W" d="M.25.617c.703.44 1.317.933 1.918 1.54 3.09 3.126 5.14 7.698 5.14 11.915 0 5.681-2.136 8.015-2.136 12.226 0 3.88 8.237 9.274 7.308 14.574 2.875 2.614 6.304 3.78 9.306 3.78-.261 1.104-.565 2.185-.91 3.252 3.375.179 4.92 3.053 6.703 4.006-.714 1.2-1.006 1.588-1.745 2.487-1.626-1.067-2.974-3.736-5.911-3.851-.246.612-.505 1.218-.778 1.818-.315.696-.791.963-1.678.963-2.729 0-6.96-1.766-10.207-5.005 2.112-3.842 2.753-5.796 2.753-7.802 0-5.087-7.232-9.362-7.232-14.298 0-4.938 2.494-7.762 2.494-13.113C5.275 8.289 3.09 4.126.25.617z"/>
        <path id="prefix__Y" d="M1.823.723c1.245.753 2.356 2.16 3.07 3.265-.623.547-1.256 1.082-1.902 1.6-.606-1.05-1.54-2.33-2.6-3.047.495-.59.974-1.197 1.432-1.818z"/>
        <path id="prefix__aa" d="M1.32.066C3.46.63 4.924 2.65 6.016 3.86c-.595.677-1.205 1.34-1.831 1.987C3.208 4.625 1.945 2.768.1 2.269.528 1.548.937.815 1.32.066z"/>
        <path id="prefix__ac" d="M.36.802C6.838.52 9.109 6.144 15.426 5.109c-.176 1.398-.389 2.785-.666 4.149C8.81 9.994 6.655 5 1.302 5.004 1.059 3.577.746 2.174.36.802z"/>
        <path id="prefix__ae" d="M.83.694c5.44-.127 7.1 4.534 11.796 4.079-.356 1.216-.741 2.421-1.177 3.601C7.027 8.573 5.515 4.291.873 4.345c.011-.434.023-.867.023-1.306C.896 2.25.873 1.469.83.694z"/>
        <path id="prefix__ag" d="M1.49.86C6.325.534 7.42 4.6 10.596 4.78c-.486 1.033-.997 2.053-1.543 3.051-3.008-.31-3.91-4.172-8.116-3.878.225-1.018.407-2.051.553-3.093z"/>
    </defs>
    <g fill="none" fill-rule="evenodd">
        <g transform="translate(92 106)">
            <mask id="prefix__b" fill="#fff">
                <use xlink:href="#prefix__a"/>
            </mask>
            <path fill="#FFF" d="M-4.426 9.866L9.289 9.866 9.289 -4.854 -4.426 -4.854z" mask="url(#prefix__b)"/>
        </g>
        <g transform="translate(96 106)">
            <mask id="prefix__d" fill="#fff">
                <use xlink:href="#prefix__c"/>
            </mask>
            <path fill="#FFF" d="M-4.081 9.866L10.834 9.866 10.834 -4.854 -4.081 -4.854z" mask="url(#prefix__d)"/>
        </g>
        <mask id="prefix__f" fill="#fff">
            <use xlink:href="#prefix__e"/>
        </mask>
        <path fill="#000" fill-opacity=".2" d="M-5 117L117 117 117 -5 -5 -5z" mask="url(#prefix__f)"/>
        <g transform="translate(36 31)">
            <mask id="prefix__h" fill="#fff">
                <use xlink:href="#prefix__g"/>
            </mask>
            <path fill="#FEFEFE" d="M-4.525 84.14L16.401 84.14 16.401 -4.049 -4.525 -4.049z" mask="url(#prefix__h)"/>
        </g>
        <g transform="translate(29 33)">
            <mask id="prefix__j" fill="#fff">
                <use xlink:href="#prefix__i"/>
            </mask>
            <path fill="#FEFEFE" d="M-4.096 79.293L17.579 79.293 17.579 -4.725 -4.096 -4.725z" mask="url(#prefix__j)"/>
        </g>
        <g transform="translate(24 86)">
            <mask id="prefix__l" fill="#fff">
                <use xlink:href="#prefix__k"/>
            </mask>
            <path fill="#FEFEFE" d="M-4.015 23.084L13.851 23.084 13.851 -4.545 -4.015 -4.545z" mask="url(#prefix__l)"/>
        </g>
        <g transform="translate(79 86)">
            <mask id="prefix__n" fill="#fff">
                <use xlink:href="#prefix__m"/>
            </mask>
            <path fill="#FEFEFE" d="M-4.969 23.085L12.897 23.085 12.897 -4.545 -4.969 -4.545z" mask="url(#prefix__n)"/>
        </g>
        <g transform="translate(43 61)">
            <mask id="prefix__p" fill="#fff">
                <use xlink:href="#prefix__o"/>
            </mask>
            <path fill="#FEFEFE" d="M-4.065 55.923L29.947 55.923 29.947 -4.011 -4.065 -4.011z" mask="url(#prefix__p)"/>
        </g>
        <g transform="translate(18 94)">
            <mask id="prefix__r" fill="#fff">
                <use xlink:href="#prefix__q"/>
            </mask>
            <path fill="#FEFEFE" d="M-4.013 10.588L10.488 10.588 10.488 -4.277 -4.013 -4.277z" mask="url(#prefix__r)"/>
        </g>
        <g transform="translate(64 31)">
            <mask id="prefix__t" fill="#fff">
                <use xlink:href="#prefix__s"/>
            </mask>
            <path fill="#FEFEFE" d="M-4.519 84.14L16.407 84.14 16.407 -4.049 -4.519 -4.049z" mask="url(#prefix__t)"/>
        </g>
        <g transform="translate(70 33)">
            <mask id="prefix__v" fill="#fff">
                <use xlink:href="#prefix__u"/>
            </mask>
            <path fill="#FEFEFE" d="M-4.698 79.293L16.978 79.293 16.978 -4.725 -4.698 -4.725z" mask="url(#prefix__v)"/>
        </g>
        <g transform="translate(0 58)">
            <mask id="prefix__x" fill="#fff">
                <use xlink:href="#prefix__w"/>
            </mask>
            <path fill="#FEFEFE" d="M-4.543 14.332L20.521 14.332 20.521 -4.209 -4.543 -4.209z" mask="url(#prefix__x)"/>
        </g>
        <g transform="translate(13 89)">
            <mask id="prefix__z" fill="#fff">
                <use xlink:href="#prefix__y"/>
            </mask>
            <path fill="#FEFEFE" d="M-4.134 10.845L11.779 10.845 11.779 -4.934 -4.134 -4.934z" mask="url(#prefix__z)"/>
        </g>
        <g transform="translate(0 49)">
            <mask id="prefix__B" fill="#fff">
                <use xlink:href="#prefix__A"/>
            </mask>
            <path fill="#FEFEFE" d="M-5 15.215L24.096 15.215 24.096 -4.18 -5 -4.18z" mask="url(#prefix__B)"/>
        </g>
        <g transform="translate(2 67)">
            <mask id="prefix__D" fill="#fff">
                <use xlink:href="#prefix__C"/>
            </mask>
            <path fill="#FEFEFE" d="M-4.744 13.381L17.052 13.381 17.052 -4.309 -4.744 -4.309z" mask="url(#prefix__D)"/>
        </g>
        <g transform="translate(92 49)">
            <mask id="prefix__F" fill="#fff">
                <use xlink:href="#prefix__E"/>
            </mask>
            <path fill="#FEFEFE" d="M-4.217 15.215L24.882 15.215 24.882 -4.18 -4.217 -4.18z" mask="url(#prefix__F)"/>
        </g>
        <g transform="translate(9 35)">
            <mask id="prefix__H" fill="#fff">
                <use xlink:href="#prefix__G"/>
            </mask>
            <path fill="#FEFEFE" d="M-4.699 59.395L32.633 59.395 32.633 -4.383 -4.699 -4.383z" mask="url(#prefix__H)"/>
        </g>
        <g transform="translate(5 75)">
            <mask id="prefix__J" fill="#fff">
                <use xlink:href="#prefix__I"/>
            </mask>
            <path fill="#FEFEFE" d="M-4.715 12.83L14.941 12.83 14.941 -4.159 -4.715 -4.159z" mask="url(#prefix__J)"/>
        </g>
        <g transform="translate(45 38)">
            <mask id="prefix__L" fill="#fff">
                <use xlink:href="#prefix__K"/>
            </mask>
            <path fill="#FEFEFE" d="M-4.633 8.589L11.818 8.589 11.818 -4.05 -4.633 -4.05z" mask="url(#prefix__L)"/>
        </g>
        <g transform="translate(60 38)">
            <mask id="prefix__N" fill="#fff">
                <use xlink:href="#prefix__M"/>
            </mask>
            <path fill="#FEFEFE" d="M-4.484 8.589L11.511 8.589 11.511 -4.05 -4.484 -4.05z" mask="url(#prefix__N)"/>
        </g>
        <g transform="translate(44 30)">
            <mask id="prefix__P" fill="#fff">
                <use xlink:href="#prefix__O"/>
            </mask>
            <path fill="#FEFEFE" d="M-4.033 34.701L27.915 34.701 27.915 -4.336 -4.033 -4.336z" mask="url(#prefix__P)"/>
        </g>
        <g transform="translate(30 3)">
            <mask id="prefix__R" fill="#fff">
                <use xlink:href="#prefix__Q"/>
            </mask>
            <path fill="#FEFEFE" d="M-4.953 34.606L56.832 34.606 56.832 -4.439 -4.953 -4.439z" mask="url(#prefix__R)"/>
        </g>
        <g transform="translate(79 27)">
            <mask id="prefix__T" fill="#fff">
                <use xlink:href="#prefix__S"/>
            </mask>
            <path fill="#FEFEFE" d="M-4.013 28.321L36.313 28.321 36.313 -4.553 -4.013 -4.553z" mask="url(#prefix__T)"/>
        </g>
        <g transform="translate(1 27)">
            <mask id="prefix__V" fill="#fff">
                <use xlink:href="#prefix__U"/>
            </mask>
            <path fill="#FEFEFE" d="M-4.434 28.321L35.892 28.321 35.892 -4.553 -4.434 -4.553z" mask="url(#prefix__V)"/>
        </g>
        <g transform="translate(75 35)">
            <mask id="prefix__X" fill="#fff">
                <use xlink:href="#prefix__W"/>
            </mask>
            <path fill="#FEFEFE" d="M-4.751 59.397L32.579 59.397 32.579 -4.383 -4.751 -4.383z" mask="url(#prefix__X)"/>
        </g>
        <g transform="translate(88 94)">
            <mask id="prefix__Z" fill="#fff">
                <use xlink:href="#prefix__Y"/>
            </mask>
            <path fill="#FEFEFE" d="M-4.609 10.589L9.893 10.589 9.893 -4.277 -4.609 -4.277z" mask="url(#prefix__Z)"/>
        </g>
        <g transform="translate(92 89)">
            <mask id="prefix__ab" fill="#fff">
                <use xlink:href="#prefix__aa"/>
            </mask>
            <path fill="#FEFEFE" d="M-4.9 10.846L11.015 10.846 11.015 -4.934 -4.9 -4.934z" mask="url(#prefix__ab)"/>
        </g>
        <g transform="translate(96 58)">
            <mask id="prefix__ad" fill="#fff">
                <use xlink:href="#prefix__ac"/>
            </mask>
            <path fill="#FEFEFE" d="M-4.639 14.332L20.425 14.332 20.425 -4.209 -4.639 -4.209z" mask="url(#prefix__ad)"/>
        </g>
        <g transform="translate(97 67)">
            <mask id="prefix__af" fill="#fff">
                <use xlink:href="#prefix__ae"/>
            </mask>
            <path fill="#FEFEFE" d="M-4.17 13.381L17.626 13.381 17.626 -4.309 -4.17 -4.309z" mask="url(#prefix__af)"/>
        </g>
        <g transform="translate(96 75)">
            <mask id="prefix__ah" fill="#fff">
                <use xlink:href="#prefix__ag"/>
            </mask>
            <path fill="#FEFEFE" d="M-4.063 12.831L15.596 12.831 15.596 -4.159 -4.063 -4.159z" mask="url(#prefix__ah)"/>
        </g>
    </g>
</svg>
